HIERARCHY
ROOT Hips
{
	OFFSET 20.972166 61.802994 -19.900904
	CHANNELS 6 Xposition Yposition Zposition Xrotation Yrotation Zrotation
	JOINT Chest
	{
		OFFSET 10.760048 1.390343 8.273005
		CHANNELS 3 Xrotation Yrotation Zrotation
		JOINT Chest2
		{
			OFFSET 14.102182 5.162712 15.282066
			CHANNELS 3 Xrotation Yrotation Zrotation
			JOINT Chest3
			{
				OFFSET 10.996197 5.047485 8.742229
				CHANNELS 3 Xrotation Yrotation Zrotation
				JOINT Neck
				{
					OFFSET 11.472057 7.580933 10.466018
					CHANNELS 3 Xrotation Yrotation Zrotation
					JOINT Head
					{
						OFFSET 7.093262 6.544128 4.085070
						CHANNELS 3 Xrotation Yrotation Zrotation
						End Site
						{
							OFFSET 7.122803 6.553040 4.018826
						}
					}
				}
				JOINT LeftCollar
				{
					OFFSET 10.104176 1.254761 9.906346
					CHANNELS 3 Xrotation Yrotation Zrotation
					JOINT LeftUpArm
					{
						OFFSET 12.499870 -11.289635 -4.979637
						CHANNELS 3 Xrotation Yrotation Zrotation
						JOINT LeftLowArm
						{
							OFFSET 0.156853 -33.758709 -0.230396
							CHANNELS 3 Xrotation Yrotation Zrotation
							JOINT LeftHand
							{
								OFFSET 2.816200 -29.101255 6.792112
								CHANNELS 3 Xrotation Yrotation Zrotation
								End Site
								{
									OFFSET 0.615509 -6.360250 1.484451
								}
							}
						}
					}
				}
				JOINT RightCollar
				{
					OFFSET 4.987492 7.889015 10.709674
					CHANNELS 3 Xrotation Yrotation Zrotation
					JOINT RightUpArm
					{
						OFFSET -9.702259 13.603882 -5.412691
						CHANNELS 3 Xrotation Yrotation Zrotation
						JOINT RightLowArm
						{
							OFFSET -23.764875 23.736443 3.398090
							CHANNELS 3 Xrotation Yrotation Zrotation
							JOINT RightHand
							{
								OFFSET -9.677763 27.035416 8.739662
								CHANNELS 3 Xrotation Yrotation Zrotation
								End Site
								{
									OFFSET -2.115150 5.908875 1.910130
								}
							}
						}
					}
				}
			}
		}
	}
	JOINT LeftUpLeg
	{
		OFFSET 2.196663 -9.699886 -1.227228
		CHANNELS 3 Xrotation Yrotation Zrotation
		JOINT LeftLowLeg
		{
			OFFSET -8.523895 -46.477348 3.344923
			CHANNELS 3 Xrotation Yrotation Zrotation
			JOINT LeftFoot
			{
				OFFSET -10.422931 3.194193 -43.378883
				CHANNELS 3 Xrotation Yrotation Zrotation
				JOINT LeftToe
				{
					OFFSET -14.240095 -18.169844 -5.161057
					CHANNELS 3 Xrotation Yrotation Zrotation
					End Site
					{
						OFFSET -2.219662 -23.203794 4.026897
					}
				}
			}
		}
	}
	JOINT RightUpLeg
	{
		OFFSET -2.196819 9.699867 1.227108
		CHANNELS 3 Xrotation Yrotation Zrotation
		JOINT RightLowLeg
		{
			OFFSET -27.857208 38.296417 -1.171585
			CHANNELS 3 Xrotation Yrotation Zrotation
			JOINT RightFoot
			{
				OFFSET -13.421972 42.398109 -4.778107
				CHANNELS 3 Xrotation Yrotation Zrotation
				JOINT RightToe
				{
					OFFSET -1.242334 13.520523 19.370295
					CHANNELS 3 Xrotation Yrotation Zrotation
					End Site
					{
						OFFSET 1.845154 -1.559280 23.531258
					}
				}
			}
		}
	}
}
MOTION
Frames: 16
Frame Time: 0.033333
21.487425 61.800388 -19.520582 -0.532246 -0.478530 -0.735313 -0.644492 0.289017 0.593025 0.293285 -1.319648 0.097329 0.065926 0.897950 0.454978 -2.424915 -0.678861 1.122741 0.000002 -0.000001 -0.000000 0.743253 0.512102 -0.381325 2.283890 0.926171 0.122575 0.171688 0.318964 -0.734494 0.000002 -0.000002 -0.000001 -0.286052 -0.414143 0.108771 -0.117644 -0.049766 -1.013429 1.566230 1.419943 -1.129410 0.000002 -0.000000 0.000003 0.789073 -0.499937 -0.138779 -0.853310 1.678817 -0.904740 -0.080273 0.327182 -0.205330 -0.000001 -0.000000 0.000001 0.436082 1.450072 0.555751 0.806861 0.617108 0.702000 0.274516 0.996219 -0.736930 -0.000000 -0.000000 0.000000 
21.597891 61.802788 -19.445137 -0.811214 -0.112640 -0.700941 -0.489916 -0.535633 0.572725 0.215091 -0.978288 0.093405 -0.034182 0.880024 0.251742 -2.499288 -0.838633 1.214707 0.000001 -0.000000 0.000001 0.849647 0.537308 -0.680072 2.378323 0.891344 0.594602 -0.046004 0.259111 -0.822141 0.000001 -0.000002 -0.000000 -0.044058 -0.395609 0.464019 0.027890 -0.004484 -1.037303 1.741990 1.506782 -1.083759 0.000003 -0.000001 0.000000 0.276022 0.044704 -0.492772 -0.221577 0.762625 -0.626716 -0.146751 0.090817 -0.281683 0.000001 -0.000002 0.000000 0.394972 1.311637 0.514218 0.915127 0.720241 0.827753 0.271351 1.087916 -0.799414 -0.000000 -0.000001 -0.000001 
21.703337 61.821304 -19.363756 -0.949815 -0.470294 -0.742607 -0.519565 -0.200776 0.554652 0.269671 -1.161041 0.117929 0.027092 0.892060 0.338939 -3.176065 -0.608011 1.337604 0.000001 -0.000000 0.000001 0.794771 0.580708 -0.886317 1.699096 0.748559 0.609189 1.113239 0.370023 -0.721494 -0.000000 -0.000000 -0.000001 0.063010 -0.276051 0.502674 0.638248 0.764783 -0.934070 1.288737 1.233170 -1.149837 0.000000 -0.000000 0.000002 0.374306 0.003758 -0.508217 -0.413789 1.215605 -0.770235 0.159330 0.951491 -0.026810 -0.000000 -0.000002 -0.000001 0.446048 1.485550 0.579856 1.099104 0.978034 0.729043 0.280119 1.100381 -0.841034 -0.000000 -0.000001 -0.000001 
21.808710 61.843803 -19.284164 -1.154575 -0.827411 -1.088605 -0.624251 0.050494 0.640959 0.265243 -1.424172 0.157428 0.141541 0.956388 0.463688 -3.706651 -0.502031 1.508429 0.000000 0.000001 -0.000004 0.519852 0.307362 -0.989741 2.120368 0.976161 0.740330 1.437896 0.472012 -0.710761 0.000001 -0.000002 -0.000000 0.267583 -0.270615 0.860531 0.150515 0.412461 -1.246222 1.496417 1.439420 -1.226786 0.000002 0.000000 0.000001 1.117006 -0.801232 -0.045622 -1.248845 2.420764 -1.183349 0.447425 1.566468 0.104239 -0.000001 -0.000000 -0.000000 0.519761 1.979959 0.940047 1.068447 0.829112 0.517599 0.140355 1.138584 -0.726314 -0.000000 -0.000001 0.000000 
21.896574 61.867004 -19.205006 -1.340605 -0.988823 -1.244361 -0.613892 -0.051854 0.631235 0.075061 -1.086842 0.180318 0.447315 0.827111 0.566905 -4.272687 -0.416765 1.656095 0.000003 -0.000003 -0.000001 0.829281 0.583241 -0.808665 1.395734 0.541191 0.508013 2.341595 0.407716 -0.724886 0.000001 -0.000002 -0.000000 0.405351 -0.356421 0.904714 0.471336 0.439996 -1.322180 1.467930 1.340624 -1.260237 0.000000 0.000001 0.000001 0.829147 -0.681110 0.111904 -0.957948 2.427724 -1.323739 0.560573 1.415071 0.177259 -0.000001 -0.000000 -0.000001 0.531968 1.912330 0.961638 1.065493 0.833377 0.478218 0.184229 1.173551 -0.799110 -0.000000 -0.000001 -0.000001 
21.978348 61.883644 -19.124012 -1.608777 -1.384449 -1.475053 -0.692296 0.235124 0.660698 0.104536 -1.074831 0.158657 0.398925 0.852181 0.732885 -4.442787 -0.440110 1.683849 0.000001 -0.000001 0.000001 0.785666 0.550567 -0.717634 2.029102 0.595246 0.456579 2.305713 0.216565 -0.737681 -0.000000 -0.000002 -0.000001 0.254666 -0.494024 1.199303 0.445157 0.376365 -1.595393 2.113534 1.696358 -1.457921 -0.000001 0.000000 0.000004 1.161796 -1.167666 0.403943 -1.297815 3.378583 -1.922306 0.759053 2.280561 0.201762 -0.000001 -0.000002 0.000001 0.878522 2.415604 0.884385 0.781773 0.599666 0.459339 0.695322 0.846990 -0.665945 -0.000001 0.000000 0.000001 
22.056675 61.905399 -19.038443 -1.481876 -1.425406 -1.511261 -0.839930 0.477427 0.733143 0.282598 -1.443950 0.142539 0.234078 1.059250 0.861087 -4.624534 -0.509304 1.851211 0.000002 -0.000001 -0.000004 0.528569 0.094275 -0.689542 2.501060 0.695854 0.175305 1.955349 0.201874 -0.709926 0.000001 -0.000000 -0.000000 0.025644 -0.684225 1.181043 0.471009 0.281098 -1.756040 2.079477 1.552363 -1.503736 -0.000001 0.000001 0.000001 0.770527 -0.752494 0.327139 -1.027665 2.945508 -1.855341 0.894186 1.882897 0.520657 -0.000000 0.000003 0.000000 0.933930 2.366439 0.677991 0.592139 0.343396 0.306183 1.334634 0.992293 -0.885658 -0.000000 -0.000000 -0.000002 
22.116764 61.923847 -18.952862 -1.556029 -1.511591 -1.639998 -0.851236 0.362963 0.762485 0.180171 -1.078030 0.116830 0.407534 0.884444 1.006143 -5.091203 -0.125156 1.861711 0.000003 -0.000003 -0.000004 0.459156 0.025454 -0.529574 2.604549 0.764064 -0.014473 2.495909 0.196652 -0.591825 -0.000000 0.000001 -0.000002 -0.221697 -0.890614 1.341428 0.216171 0.101394 -2.089631 2.373662 1.581397 -1.452531 0.000000 0.000001 0.000001 0.953614 -0.932932 0.512100 -1.189527 3.207443 -1.931803 1.053419 1.855715 0.776056 0.000002 -0.000002 0.000001 0.917041 2.345881 0.596220 0.452522 0.255370 0.109966 1.213499 0.805595 -0.778509 -0.000000 -0.000000 0.000001 
22.174288 61.945072 -18.863619 -1.586062 -1.826740 -1.711097 -0.892845 0.621041 0.761618 0.182626 -1.069594 0.132911 0.554267 1.124681 1.167834 -5.584105 -0.287552 1.993919 -0.000000 -0.000001 -0.000002 0.486372 -0.107327 -0.847887 2.250591 0.616463 0.181194 2.398886 0.252008 -0.519088 0.000002 -0.000002 -0.000001 -0.545637 -1.145252 1.365391 0.719798 0.472332 -2.125125 0.459747 0.396003 -1.567532 0.000002 0.000000 0.000002 0.411118 -0.518443 0.513306 -0.625798 3.108098 -2.155146 0.401058 2.165314 0.012664 0.000000 -0.000002 0.000000 1.018957 2.309648 0.377577 0.539122 0.363436 0.067517 1.033803 1.217513 -1.034881 -0.000000 -0.000001 -0.000002 
22.230818 61.963528 -18.773933 -1.559575 -2.222786 -1.918207 -1.060368 0.706086 0.916829 0.117900 -0.773083 0.122021 0.748865 0.955815 1.342157 -5.740269 -0.130696 1.970633 0.000002 -0.000003 -0.000004 0.592689 0.015320 -0.638085 2.018825 0.471488 -0.127077 2.185770 0.049345 -0.445253 0.000000 -0.000003 0.000001 -0.169817 -0.968086 1.277490 0.836893 0.438988 -2.063230 -0.078763 -0.043690 -1.829008 0.000000 0.000000 -0.000001 0.984607 -1.123377 0.781889 -1.407393 4.138163 -2.422085 0.277997 2.449572 -0.303184 -0.000001 -0.000002 -0.000001 1.010730 2.282076 0.356053 0.999496 0.712898 -0.005505 1.287766 1.497092 -1.381796 -0.000001 -0.000000 0.000000 
22.277954 61.980442 -18.686104 -1.556093 -2.024844 -2.016483 -1.052953 0.502264 0.943706 -0.014822 -0.629060 0.175096 0.946417 0.933477 1.497998 -6.024020 -0.091066 2.122517 0.000003 -0.000003 -0.000001 0.830944 0.311459 -0.752089 2.105984 0.501461 -0.064787 1.989840 0.263987 -0.534498 0.000002 -0.000002 -0.000000 -0.444706 -1.042590 1.312749 1.624273 1.133252 -2.176281 -0.115311 0.031721 -1.627822 0.000000 0.000000 0.000001 0.631784 -1.015974 0.932490 -0.999594 3.754978 -2.536399 0.239304 2.290708 -0.326351 -0.000001 -0.000000 0.000001 1.134164 2.176238 0.132915 1.687577 1.117476 0.198988 1.405199 2.251015 -1.962729 -0.000000 0.000001 -0.000002 
22.319002 61.986893 -18.607924 -1.119091 -2.514180 -1.943132 -1.369597 1.398188 1.129583 -0.130990 -1.086786 0.265263 0.822969 1.116490 1.110634 -6.433199 -0.262231 2.129120 0.000001 0.000000 -0.000004 0.729692 0.349497 -0.504848 1.399051 0.151213 -0.295138 2.105220 0.103888 -0.511379 0.000002 -0.000002 0.000001 -0.479725 -1.061849 1.488458 1.143128 0.466173 -2.262068 0.216142 0.134809 -1.582623 0.000001 0.000001 -0.000001 0.798849 -1.267680 1.014839 -1.584246 4.832239 -2.971868 0.626825 2.531193 -0.056293 -0.000002 -0.000005 0.000001 1.164709 1.833235 -0.218408 1.416245 0.932499 0.071644 1.760645 2.264714 -2.121215 -0.000002 -0.000001 0.000000 
22.358124 61.979111 -18.535727 -0.938599 -2.997920 -1.894869 -1.529604 1.876264 1.213140 -0.379533 -0.796357 0.329261 0.881300 0.883022 0.854654 -6.487831 -0.261137 2.146326 0.000001 -0.000001 -0.000000 0.972366 0.588839 -0.515347 1.353689 -0.063197 -0.128398 2.669471 -0.087593 -0.424344 -0.000001 -0.000002 0.000000 -0.439435 -1.186426 1.685293 1.073211 0.167265 -2.272939 0.268957 -0.010753 -1.751286 0.000000 0.000000 -0.000001 1.087317 -1.561413 1.108757 -1.982490 5.825193 -3.370501 0.470560 2.338810 -0.263851 -0.000001 -0.000002 -0.000001 1.521665 2.113270 -0.636274 1.030036 0.753889 0.029396 2.158415 2.291844 -2.289438 -0.000001 -0.000001 -0.000001 
22.395643 61.976620 -18.465368 -0.425383 -3.501149 -1.750935 -1.841056 2.515022 1.406231 -0.298147 -0.907496 0.326945 0.943520 0.932839 0.845294 -6.947922 0.215510 2.229693 0.000000 0.000001 -0.000000 0.778528 0.177480 -0.548824 0.809481 -0.461175 -0.450483 2.822620 -0.323575 -0.244653 0.000000 0.000001 -0.000001 -0.869809 -1.413100 1.435774 1.621411 0.463773 -2.288727 -0.213440 -0.458902 -1.553868 0.000000 0.000000 0.000004 1.303614 -1.736541 1.019549 -2.717401 6.530141 -3.459973 0.231295 2.213331 -0.416861 -0.000001 -0.000000 0.000000 1.523167 1.822268 -0.945208 0.790530 0.554905 -0.070670 2.906347 2.285823 -2.481157 -0.000000 0.000000 -0.000001 
22.418579 61.975304 -18.391827 -0.751315 -3.500057 -1.816643 -1.671124 2.263459 1.248485 -0.149551 -0.988508 0.306692 1.116287 1.201447 1.137322 -7.446820 0.785671 2.397910 -0.000001 -0.000001 0.000003 0.644302 0.003354 -0.368409 0.438094 -0.516411 -0.755321 3.245135 -0.158228 -0.028526 0.000000 -0.000003 0.000000 -0.597308 -1.250432 1.114795 1.971844 0.849901 -1.846732 -0.803717 -0.814356 -1.358884 0.000001 -0.000001 0.000000 1.625820 -1.999456 1.094329 -2.745713 6.744035 -3.767069 0.395566 1.744371 -0.054249 -0.000002 -0.000000 0.000000 1.440294 1.543739 -1.038357 1.327467 0.614054 -0.180340 3.195903 2.545814 -2.609617 -0.000002 -0.000001 -0.000003 
22.431574 61.986752 -18.316908 -0.438503 -3.608397 -1.783297 -1.760781 2.453870 1.308697 -0.332028 -0.929701 0.334402 1.132859 1.000516 0.985445 -7.671516 1.025238 2.357752 0.000001 0.000001 -0.000000 0.529542 -0.148758 -0.412310 -0.179250 -0.565628 -0.599252 3.715661 0.181602 -0.017377 0.000002 -0.000002 -0.000000 -1.081835 -1.440609 1.021361 1.785642 0.795140 -1.551877 -0.025679 -0.140208 -1.208164 -0.000001 -0.000001 0.000002 1.738597 -2.146951 1.161826 -3.198498 6.974355 -3.803137 0.382854 1.939608 -0.137881 -0.000000 -0.000004 -0.000000 1.243037 0.979866 -1.233688 1.064170 0.261431 -0.222107 3.756746 2.758355 -2.951374 -0.000001 -0.000001 0.000000 
